<?xml version="1.0" encoding="UTF-8"?>
<svg xmlns="http://www.w3.org/2000/svg" xmlns:xlink="http://www.w3.org/1999/xlink" width="256px" height="204px" viewBox="0 0 192 153" version="1.1">
<g id="surface1">
<path style=" stroke:none;fill-rule:nonzero;fill:rgb(93.333333%,96.078431%,100%);fill-opacity:1;" d="M 97.5 34.5 C 97.746094 38.53125 97.316406 42.339844 96.609375 46.3125 C 96.363281 47.746094 96.363281 47.746094 96.109375 49.207031 C 95.035156 52.386719 94.363281 52.988281 91.5 54.75 C 88.472656 55.679688 85.390625 56.273438 82.28125 56.878906 C 81.375 57.066406 80.464844 57.253906 79.527344 57.445312 C 77.105469 57.941406 74.679688 58.425781 72.253906 58.910156 C 65.246094 60.304688 58.242188 61.738281 51.246094 63.222656 C 49.640625 63.5625 48.03125 63.898438 46.421875 64.230469 C 44.390625 64.65625 42.367188 65.113281 40.34375 65.582031 C 39.757812 65.699219 39.175781 65.816406 38.578125 65.9375 C 36.789062 66.320312 36.789062 66.320312 34.5 67.5 C 33.300781 70.148438 33.300781 70.148438 33 72.75 C 33.636719 72.609375 33.636719 72.609375 34.285156 72.464844 C 38.699219 71.488281 43.117188 70.515625 47.535156 69.546875 C 49.183594 69.183594 50.828125 68.820312 52.476562 68.453125 C 54.847656 67.929688 57.214844 67.410156 59.585938 66.890625 C 60.320312 66.726562 61.058594 66.5625 61.816406 66.394531 C 62.503906 66.242188 63.195312 66.09375 63.90625 65.9375 C 64.511719 65.804688 65.117188 65.671875 65.738281 65.535156 C 67.632812 65.226562 69.335938 65.101562 71.25 65.25 C 71.746094 65.746094 72.238281 66.238281 72.75 66.75 C 72.597656 69.761719 72.027344 72.714844 71.519531 75.683594 C 71.242188 77.300781 70.980469 78.917969 70.722656 80.535156 C 70.539062 81.613281 70.355469 82.6875 70.171875 83.765625 C 70.089844 84.277344 70.007812 84.789062 69.921875 85.316406 C 69.417969 88.121094 68.96875 89.703125 66.75 91.5 C 64.640625 92.074219 62.613281 92.523438 60.46875 92.90625 C 59.828125 93.027344 59.1875 93.148438 58.527344 93.273438 C 56.269531 93.695312 54.011719 94.097656 51.75 94.5 C 50.832031 94.664062 49.910156 94.832031 48.964844 95 C 46.019531 95.527344 43.070312 96.046875 40.125 96.5625 C 39.171875 96.730469 38.21875 96.898438 37.238281 97.070312 C 35.894531 97.300781 35.894531 97.300781 34.523438 97.535156 C 33.722656 97.671875 32.921875 97.8125 32.097656 97.953125 C 30 98.25 30 98.25 27 98.25 C 27.015625 99.085938 27.03125 99.921875 27.046875 100.78125 C 27 103.5 27 103.5 26.25 105 C 26.933594 104.886719 27.621094 104.773438 28.328125 104.660156 C 34.792969 103.59375 41.257812 102.535156 47.726562 101.480469 C 51.050781 100.9375 54.375 100.390625 57.699219 99.84375 C 60.90625 99.316406 64.117188 98.792969 67.328125 98.269531 C 68.550781 98.070312 69.773438 97.867188 70.996094 97.667969 C 72.710938 97.382812 74.429688 97.105469 76.144531 96.828125 C 77.609375 96.585938 77.609375 96.585938 79.101562 96.339844 C 81.542969 96.027344 83.792969 95.820312 86.25 96 C 87.75 97.5 87.75 97.5 87.785156 99.765625 C 87.550781 102.761719 87.296875 105.757812 87 108.75 C 86.871094 110.140625 86.871094 110.140625 86.742188 111.554688 C 86.640625 112.410156 86.542969 113.261719 86.4375 114.140625 C 86.347656 114.910156 86.257812 115.679688 86.167969 116.46875 C 85.28125 119.167969 84.085938 119.917969 81.75 121.5 C 79.570312 122.136719 79.570312 122.136719 77.140625 122.507812 C 76.226562 122.652344 75.316406 122.796875 74.375 122.945312 C 73.378906 123.089844 72.386719 123.230469 71.390625 123.375 C 70.351562 123.53125 69.3125 123.691406 68.273438 123.847656 C 65.019531 124.335938 61.757812 124.796875 58.5 125.25 C 57.984375 125.324219 57.46875 125.394531 56.941406 125.46875 C 18.0625 130.933594 18.0625 130.933594 0 129 C -0.796875 112.4375 2.40625 96.144531 5.625 79.96875 C 5.734375 79.425781 5.839844 78.882812 5.949219 78.324219 C 6.671875 74.707031 7.4375 71.097656 8.25 67.5 C 8.367188 66.972656 8.488281 66.445312 8.609375 65.902344 C 8.964844 64.34375 9.34375 62.789062 9.726562 61.234375 C 9.945312 60.332031 10.167969 59.425781 10.394531 58.492188 C 11.363281 55.957031 11.882812 55.261719 14.25 54 C 16.019531 53.328125 17.746094 52.734375 19.554688 52.1875 C 20.078125 52.023438 20.605469 51.859375 21.144531 51.691406 C 22.875 51.15625 24.609375 50.632812 26.34375 50.109375 C 26.941406 49.925781 27.542969 49.746094 28.160156 49.558594 C 40.363281 45.867188 52.671875 42.832031 65.125 40.105469 C 66.808594 39.738281 68.488281 39.363281 70.171875 38.988281 C 73.015625 38.351562 75.863281 37.726562 78.710938 37.105469 C 79.785156 36.871094 80.859375 36.636719 81.929688 36.398438 C 87.179688 35.246094 92.113281 34.171875 97.5 34.5 Z M 97.5 34.5 "/>
<path style=" stroke:none;fill-rule:nonzero;fill:rgb(93.333333%,96.078431%,100%);fill-opacity:1;" d="M 184.078125 23.15625 C 184.605469 23.152344 185.136719 23.152344 185.679688 23.148438 C 187.996094 23.152344 189.785156 23.261719 192 24 C 192.402344 42.496094 188.460938 52.28125 176.25 66 C 175.640625 66.691406 175.035156 67.382812 174.40625 68.097656 C 170.675781 72.308594 166.769531 76.316406 162.75 80.25 C 167.609375 79.726562 172.203125 78.730469 176.929688 77.53125 C 179.769531 76.832031 182.300781 76.320312 185.25 76.5 C 185.339844 80.664062 185.09375 84.542969 184.359375 88.640625 C 184.285156 89.15625 184.207031 89.667969 184.128906 90.199219 C 183.445312 94.039062 182.160156 95.734375 179.25 98.25 C 175.921875 99.886719 172.367188 100.949219 168.84375 102.09375 C 168.316406 102.269531 167.792969 102.441406 167.25 102.621094 C 147.839844 108.992188 127.652344 113.207031 107.625 117.140625 C 106.875 117.289062 106.125 117.433594 105.351562 117.585938 C 101.667969 118.269531 98.246094 118.648438 94.5 118.5 C 93.144531 116.210938 92.851562 114.867188 93.265625 112.25 C 93.363281 111.636719 93.460938 111.023438 93.558594 110.390625 C 93.667969 109.757812 93.777344 109.121094 93.890625 108.46875 C 93.984375 107.839844 94.082031 107.210938 94.179688 106.5625 C 95.085938 101.039062 96.589844 97.210938 100.921875 93.46875 C 101.59375 92.886719 102.265625 92.304688 102.957031 91.703125 C 105.390625 89.671875 107.847656 87.675781 110.339844 85.714844 C 113.015625 83.589844 115.664062 81.425781 118.3125 79.265625 C 122.105469 76.171875 125.929688 73.125 129.796875 70.125 C 134.050781 66.816406 138.136719 63.335938 142.191406 59.78125 C 145.640625 56.765625 149.148438 53.84375 152.710938 50.960938 C 155.09375 49.015625 157.425781 47.015625 159.75 45 C 155.175781 44.925781 150.8125 45.15625 146.285156 45.765625 C 145.667969 45.847656 145.050781 45.925781 144.417969 46.007812 C 142.464844 46.261719 140.515625 46.523438 138.5625 46.78125 C 137.265625 46.949219 135.972656 47.117188 134.675781 47.285156 C 128.457031 48.09375 122.253906 48.945312 116.070312 49.976562 C 112.652344 50.425781 109.1875 50.53125 105.75 50.25 C 105.378906 49.878906 105.378906 49.878906 105 49.5 C 105.027344 47.582031 105.109375 45.695312 105.234375 43.78125 C 105.261719 43.257812 105.289062 42.730469 105.316406 42.191406 C 105.53125 38.71875 105.917969 35.5 107.25 32.25 C 109.996094 30.835938 112.769531 30.359375 115.804688 29.890625 C 116.765625 29.738281 117.730469 29.589844 118.722656 29.4375 C 119.773438 29.28125 120.824219 29.125 121.875 28.96875 C 122.410156 28.886719 122.949219 28.808594 123.5 28.726562 C 132.421875 27.394531 141.363281 26.289062 150.328125 25.3125 C 150.890625 25.25 151.453125 25.1875 152.03125 25.125 C 162.667969 23.960938 173.371094 23.09375 184.078125 23.15625 Z M 184.078125 23.15625 "/>
<path style=" stroke:none;fill-rule:nonzero;fill:rgb(10.980392%,30.588235%,84.705882%);fill-opacity:1;" d="M 164.25 109.5 C 163.128906 117.308594 156.507812 124.003906 151.5 129.75 C 151.09375 130.21875 150.691406 130.6875 150.273438 131.171875 C 139.566406 142.6875 121.347656 152.289062 105.503906 153.132812 C 79.867188 153.546875 79.867188 153.546875 70.5 150 C 69.953125 149.792969 69.402344 149.589844 68.835938 149.378906 C 60.910156 146.316406 53.980469 142.429688 47.25 137.25 C 46.542969 136.71875 45.835938 136.191406 45.109375 135.644531 C 44.578125 135.183594 44.046875 134.722656 43.5 134.25 C 43.5 133.753906 43.5 133.261719 43.5 132.75 C 46.042969 132.328125 48.59375 131.925781 51.140625 131.53125 C 51.859375 131.410156 52.582031 131.292969 53.320312 131.167969 C 54.019531 131.0625 54.71875 130.957031 55.4375 130.84375 C 56.078125 130.742188 56.71875 130.640625 57.378906 130.535156 C 59.609375 130.492188 60.992188 131.054688 63 132 C 63.738281 132.347656 64.476562 132.695312 65.234375 133.050781 C 66.027344 133.433594 66.824219 133.8125 67.640625 134.203125 C 71.765625 136.125 75.84375 137.617188 80.25 138.75 C 79.769531 138.234375 79.292969 137.71875 78.800781 137.1875 C 78.179688 136.511719 77.558594 135.835938 76.921875 135.140625 C 76.304688 134.46875 75.6875 133.800781 75.050781 133.109375 C 73.5 131.25 73.5 131.25 72.75 129 C 75.945312 128.175781 79.132812 127.433594 82.394531 126.929688 C 82.929688 126.84375 83.460938 126.757812 84.011719 126.671875 C 85.96875 126.773438 86.671875 127.441406 88.03125 128.8125 C 88.46875 129.554688 88.46875 129.554688 88.914062 130.308594 C 90.347656 132.539062 92.117188 133.941406 94.171875 135.609375 C 94.851562 136.171875 95.535156 136.734375 96.238281 137.3125 C 98.53125 138.949219 100.628906 140.25 103.5 140.25 C 103.285156 139.308594 103.066406 138.371094 102.84375 137.402344 C 102.5625 136.164062 102.28125 134.925781 102 133.6875 C 101.855469 133.070312 101.714844 132.449219 101.566406 131.8125 C 101.363281 130.914062 101.363281 130.914062 101.15625 129.996094 C 101.03125 129.445312 100.90625 128.894531 100.777344 128.328125 C 100.5 126.75 100.5 126.75 100.5 123.75 C 101.546875 123.496094 102.59375 123.246094 103.640625 123 C 104.222656 122.859375 104.804688 122.722656 105.40625 122.578125 C 107.25 122.25 107.25 122.25 111 122.25 C 111.988281 127.449219 112.980469 132.644531 114 138 C 115.238281 137.753906 116.476562 137.503906 117.75 137.25 C 117.921875 136.675781 118.089844 136.105469 118.265625 135.515625 C 119.363281 132.429688 120.695312 129.523438 122.101562 126.570312 C 122.898438 124.730469 123.347656 123.0625 123.796875 121.125 C 124.296875 119.695312 124.296875 119.695312 125.25 118.5 C 129.15625 116.835938 133.023438 116.25 137.25 116.25 C 136.863281 119.976562 136.324219 123.21875 135 126.75 C 142.316406 120.804688 142.316406 120.804688 147.75 113.25 C 149.1875 112.734375 149.1875 112.734375 151.050781 112.28125 C 151.71875 112.117188 152.386719 111.953125 153.074219 111.785156 C 153.777344 111.617188 154.480469 111.453125 155.203125 111.28125 C 155.902344 111.109375 156.601562 110.9375 157.324219 110.757812 C 162.507812 109.5 162.507812 109.5 164.25 109.5 Z M 164.25 109.5 "/>
<path style=" stroke:none;fill-rule:nonzero;fill:rgb(11.372549%,30.588235%,84.705882%);fill-opacity:1;" d="M 144.601562 16.511719 C 145.417969 17.25 145.417969 17.25 146.25 18 C 146.25 18.742188 146.25 19.484375 146.25 20.25 C 142.757812 20.804688 139.257812 21.296875 135.75 21.75 C 135.15625 21.84375 134.558594 21.9375 133.945312 22.035156 C 128.941406 22.488281 124.859375 19.984375 120.515625 17.820312 C 117.214844 16.195312 113.816406 15.132812 110.25 14.25 C 111.0625 15.117188 111.0625 15.117188 111.890625 16 C 112.59375 16.761719 113.296875 17.519531 114 18.28125 C 114.359375 18.664062 114.714844 19.042969 115.085938 19.4375 C 117.75 22.328125 117.75 22.328125 117.75 24 C 116.046875 24.378906 114.34375 24.753906 112.640625 25.125 C 111.691406 25.332031 110.742188 25.542969 109.765625 25.757812 C 107.25 26.25 107.25 26.25 105 26.25 C 103.949219 25.203125 103.949219 25.203125 102.796875 23.71875 C 100.445312 20.917969 97.929688 18.496094 95.15625 16.125 C 94.410156 15.484375 93.667969 14.839844 92.898438 14.179688 C 90.632812 12.671875 89.652344 12.398438 87 12.75 C 87.214844 13.691406 87.433594 14.628906 87.65625 15.597656 C 87.9375 16.835938 88.21875 18.074219 88.5 19.3125 C 88.644531 19.929688 88.785156 20.550781 88.933594 21.1875 C 89.136719 22.085938 89.136719 22.085938 89.34375 23.003906 C 89.46875 23.554688 89.59375 24.105469 89.726562 24.671875 C 90 26.25 90 26.25 90 29.25 C 86.78125 29.992188 83.566406 30.734375 80.25 31.5 C 79.761719 29.734375 79.277344 27.96875 78.796875 26.203125 C 78.589844 25.464844 78.589844 25.464844 78.382812 24.710938 C 77.507812 21.480469 76.910156 18.320312 76.5 15 C 75.261719 15.246094 74.023438 15.496094 72.75 15.75 C 72.550781 16.382812 72.347656 17.015625 72.140625 17.667969 C 71.210938 20.359375 70.136719 22.9375 69 25.546875 C 67.410156 29.152344 67.410156 29.152344 66.109375 32.867188 C 65.25 34.5 65.25 34.5 63.429688 35.359375 C 62.714844 35.523438 62 35.6875 61.265625 35.859375 C 60.203125 36.121094 60.203125 36.121094 59.117188 36.390625 C 57.113281 36.730469 55.28125 36.820312 53.25 36.75 C 53.636719 33.023438 54.175781 29.78125 55.5 26.25 C 48.183594 32.195312 48.183594 32.195312 42.75 39.75 C 41.484375 40.265625 41.484375 40.265625 39.855469 40.71875 C 39.265625 40.882812 38.675781 41.046875 38.070312 41.214844 C 37.449219 41.382812 36.828125 41.546875 36.1875 41.71875 C 35.273438 41.976562 35.273438 41.976562 34.34375 42.238281 C 31.335938 43.0625 28.644531 43.742188 25.5 43.5 C 33.375 25.355469 48.617188 11.980469 66.75 4.5 C 93.964844 -5.652344 121.476562 -0.128906 144.601562 16.511719 Z M 144.601562 16.511719 "/>
<path style=" stroke:none;fill-rule:nonzero;fill:rgb(93.333333%,96.470588%,100%);fill-opacity:1;" d="M 127.5 62.25 C 127.078125 64.734375 126.457031 65.78125 124.480469 67.328125 C 124.011719 67.695312 123.546875 68.066406 123.066406 68.449219 C 122.5625 68.832031 122.0625 69.214844 121.546875 69.609375 C 121.035156 70.007812 120.523438 70.402344 119.996094 70.8125 C 118.503906 71.96875 117.003906 73.109375 115.5 74.25 C 114.789062 74.804688 114.082031 75.355469 113.351562 75.925781 C 112.746094 76.378906 112.140625 76.832031 111.515625 77.296875 C 111.007812 77.675781 110.5 78.058594 109.976562 78.449219 C 103.988281 81.632812 97.140625 82.421875 90.515625 83.390625 C 89.652344 83.523438 88.785156 83.65625 87.894531 83.792969 C 80.453125 84.910156 80.453125 84.910156 77.25 84.75 C 77.003906 84.503906 76.753906 84.253906 76.5 84 C 76.601562 79.449219 76.960938 74.707031 78.75 70.5 C 81.351562 69.195312 83.960938 68.636719 86.8125 68.128906 C 88.085938 67.902344 88.085938 67.902344 89.386719 67.667969 C 90.292969 67.507812 91.203125 67.351562 92.140625 67.1875 C 93.078125 67.019531 94.015625 66.855469 94.980469 66.683594 C 96.960938 66.332031 98.941406 65.984375 100.925781 65.640625 C 103.464844 65.199219 106 64.746094 108.539062 64.292969 C 110.960938 63.863281 113.386719 63.4375 115.8125 63.015625 C 116.722656 62.851562 117.632812 62.6875 118.574219 62.519531 C 119.839844 62.300781 119.839844 62.300781 121.128906 62.078125 C 121.871094 61.949219 122.617188 61.820312 123.382812 61.683594 C 125.25 61.5 125.25 61.5 127.5 62.25 Z M 127.5 62.25 "/>
</g>
</svg>
